<?xml version="1.0" standalone="no"?>
<!DOCTYPE svg PUBLIC "-//W3C//DTD SVG 20010904//EN"
 "http://www.w3.org/TR/2001/REC-SVG-20010904/DTD/svg10.dtd">
<svg version="1.0" xmlns="http://www.w3.org/2000/svg"
 width="192.000000pt" height="192.000000pt" viewBox="0 0 192.000000 192.000000"
 preserveAspectRatio="xMidYMid meet">
<metadata>
Created by potrace 1.11, written by Peter Selinger 2001-2013
</metadata>
<g transform="translate(0.000000,192.000000) scale(0.100000,-0.100000)"
fill="#000000" stroke="none">
<path d="M1001 1747 c-4 -4 -24 -8 -44 -9 -20 -1 -37 -5 -37 -9 0 -4 -9 -6
-20 -4 -11 2 -24 -3 -28 -12 -5 -8 -12 -14 -15 -14 -4 1 -24 -6 -45 -15 -20
-10 -40 -18 -43 -18 -3 -1 -13 -8 -22 -16 -9 -8 -32 -26 -53 -40 -39 -27 -224
-204 -224 -214 0 -4 -13 -21 -30 -39 -16 -18 -30 -35 -30 -39 0 -4 -10 -17
-22 -30 -13 -13 -29 -35 -37 -50 -8 -15 -22 -36 -32 -47 -10 -10 -16 -21 -13
-23 2 -3 -5 -13 -16 -23 -11 -10 -20 -24 -20 -32 0 -7 -4 -13 -10 -13 -5 0 -9
-3 -8 -7 2 -12 -24 -63 -33 -63 -4 0 -10 -12 -14 -27 -3 -15 -10 -30 -13 -33
-11 -8 -55 -102 -55 -117 0 -7 -5 -13 -10 -13 -6 0 -7 -3 -4 -6 3 -4 1 -16 -5
-28 -7 -11 -13 -23 -13 -26 -1 -3 -7 -18 -14 -35 -7 -16 -14 -35 -15 -42 -1
-7 -5 -16 -9 -19 -4 -4 -7 -20 -7 -35 0 -15 -4 -30 -9 -34 -6 -3 -10 -13 -11
-23 -3 -67 -13 -132 -19 -132 -9 0 -7 -37 2 -46 4 -4 7 -22 7 -41 0 -18 6 -43
13 -55 17 -30 55 -67 61 -61 3 3 19 0 35 -7 17 -7 35 -8 43 -3 7 4 27 8 43 9
17 0 48 8 69 17 27 12 43 14 50 7 5 -5 8 -10 5 -11 -2 0 -17 -2 -33 -4 -16 -2
-39 -13 -50 -24 -16 -17 -18 -26 -10 -48 9 -26 13 -28 71 -28 l61 -1 -5 41
c-2 22 -6 55 -8 74 -3 26 0 34 15 38 11 3 20 9 20 14 0 5 4 9 9 9 4 0 8 -34 8
-75 -1 -83 15 -114 50 -101 17 7 17 8 -1 22 -16 11 -19 26 -19 83 1 38 4 78 7
88 7 17 68 63 86 63 5 0 15 8 22 18 7 9 29 28 48 42 19 13 40 28 45 32 6 4 35
26 65 47 63 45 83 60 126 96 18 14 36 25 42 25 5 0 12 7 16 15 3 8 10 15 16
15 10 0 68 37 80 51 3 3 24 14 48 24 23 11 42 23 42 28 0 4 5 5 10 2 6 -3 10
-2 10 3 0 9 33 22 54 21 5 -1 12 3 15 8 12 16 48 31 59 24 6 -4 10 -17 7 -29
-2 -12 0 -24 6 -27 5 -4 9 -21 9 -40 0 -19 5 -37 10 -40 6 -4 10 -12 9 -18 -3
-17 12 -90 21 -102 4 -5 6 -18 5 -27 -2 -10 1 -20 6 -24 5 -3 9 -16 9 -30 0
-13 4 -24 9 -24 6 0 9 -8 9 -17 -1 -16 30 -102 52 -143 5 -10 -2 -26 -21 -48
-23 -26 -28 -39 -24 -64 12 -64 38 -84 101 -76 46 5 42 27 -5 25 -29 -1 -44 4
-54 17 -14 20 -11 62 6 84 10 13 41 17 33 4 -2 -4 15 -28 40 -52 24 -24 44
-52 44 -62 0 -21 12 -23 40 -6 15 9 24 9 42 0 22 -12 45 -12 78 1 8 3 26 8 40
11 14 3 35 15 48 26 12 11 22 18 22 15 0 -4 11 7 25 23 14 17 25 35 25 41 0 6
5 11 10 11 11 0 50 82 55 115 1 6 5 18 10 28 4 9 5 68 3 130 -5 140 -20 176
-118 276 -53 55 -102 83 -188 111 -44 15 -106 24 -154 23 -48 -1 -56 7 -49 50
0 4 -3 7 -7 7 -5 0 -10 23 -11 52 -1 28 -5 56 -9 62 -4 6 -8 28 -7 49 0 20 -3
37 -7 37 -5 0 -8 15 -8 34 0 19 -4 37 -8 40 -5 3 -8 21 -7 40 1 20 -1 36 -5
36 -4 0 -11 15 -15 33 -4 17 -9 34 -10 37 -1 3 -6 20 -10 38 -4 17 -11 32 -16
32 -5 0 -8 3 -7 8 3 14 -15 65 -29 81 -84 97 -115 121 -155 121 -16 0 -28 4
-28 9 0 11 -58 9 -69 -2z m16 -429 c7 -6 13 -7 13 -4 0 4 23 -15 50 -42 28
-27 50 -57 50 -66 0 -10 5 -14 11 -10 7 4 10 1 7 -7 -3 -8 2 -19 10 -25 8 -6
16 -22 17 -37 2 -14 7 -32 11 -39 5 -7 9 -17 9 -23 1 -12 13 -44 26 -67 17
-33 -12 -60 -79 -74 -35 -7 -291 -140 -304 -159 -5 -7 -8 -7 -8 0 0 6 -6 3
-13 -5 -7 -8 -25 -22 -41 -30 -57 -29 -66 -35 -66 -42 0 -5 -6 -8 -14 -8 -7 0
-19 -7 -26 -15 -7 -8 -16 -12 -21 -9 -5 3 -9 1 -9 -5 0 -11 -60 -47 -72 -43
-5 1 -8 -2 -8 -7 0 -5 -25 -21 -55 -36 -30 -16 -55 -33 -55 -38 0 -6 -3 -8 -6
-4 -3 3 -29 -6 -57 -21 -57 -29 -68 -32 -112 -33 -54 -2 -63 1 -70 24 -9 31
-11 107 -2 107 4 0 7 10 7 23 0 25 64 162 89 191 9 10 14 20 12 23 -1 3 6 16
18 29 12 13 21 28 21 32 0 5 20 30 45 55 25 26 45 54 45 62 0 8 5 15 12 15 7
0 45 34 85 75 41 41 78 75 83 75 6 0 10 5 10 10 0 6 8 14 18 17 9 4 22 12 27
19 6 7 16 14 24 16 7 2 25 13 38 25 14 12 28 22 32 22 15 -2 51 14 51 22 0 5
11 7 23 5 13 -2 29 -1 35 3 19 12 125 11 139 -1z m524 -404 c19 -4 38 -7 43
-5 5 1 16 -1 25 -5 9 -4 20 -8 24 -8 4 -1 11 -5 15 -11 8 -12 69 -55 77 -55
18 0 113 -126 102 -136 -3 -4 -1 -16 5 -28 7 -11 13 -28 13 -36 0 -8 4 -21 9
-28 4 -7 5 -30 0 -50 -4 -20 -8 -44 -8 -54 -1 -9 -4 -20 -8 -24 -5 -4 -8 -15
-8 -24 0 -9 -9 -25 -20 -35 -11 -10 -18 -20 -15 -23 10 -11 -88 -76 -114 -76
-76 3 -143 73 -182 189 -13 39 -26 72 -29 75 -3 3 -6 16 -7 30 -4 44 -14 105
-20 120 -3 8 -7 29 -7 45 -1 17 -4 35 -7 40 -3 6 -7 29 -8 52 -3 59 25 70 120
47z m-1191 -694 c0 -25 -25 -43 -50 -35 -26 8 -26 30 1 49 25 17 49 11 49 -14z"/>
<path d="M687 375 c-8 -18 11 -31 25 -17 11 11 3 32 -12 32 -4 0 -10 -7 -13
-15z"/>
<path d="M1030 375 c0 -13 29 -20 70 -17 3 0 4 -44 4 -99 -2 -86 0 -99 15 -99
14 0 16 14 16 100 0 95 1 101 20 99 41 -3 55 1 55 16 0 12 -17 15 -90 15 -73
0 -90 -3 -90 -15z"/>
<path d="M508 324 c-7 -6 47 -143 62 -158 6 -6 12 -2 16 10 4 10 20 48 36 83
16 35 27 65 25 68 -13 12 -36 -14 -52 -60 l-19 -52 -17 40 c-10 22 -20 48 -23
58 -4 17 -17 22 -28 11z"/>
<path d="M664 319 c-3 -5 1 -12 9 -14 9 -4 13 -25 13 -73 0 -52 4 -68 16 -70
12 -2 15 11 14 80 -1 79 -2 83 -24 84 -12 1 -25 -3 -28 -7z"/>
<path d="M767 324 c-4 -4 -7 -43 -7 -86 0 -63 3 -78 15 -78 12 0 15 14 15 65
0 52 3 66 19 74 34 19 53 -8 53 -77 1 -45 4 -62 14 -62 15 0 16 3 17 65 1 65
-10 94 -40 101 -14 4 -34 2 -43 -4 -11 -7 -21 -7 -27 -1 -5 5 -12 6 -16 3z"/>
<path d="M1219 317 c-40 -31 -49 -108 -15 -136 19 -16 73 -31 81 -23 4 4 11 7
16 7 5 0 9 3 9 8 0 4 0 12 0 17 0 7 -6 7 -19 0 -22 -11 -71 2 -71 20 0 5 0 13
0 18 0 4 26 9 57 12 55 5 58 6 55 30 -6 49 -73 78 -113 47z m76 -38 c0 -9 -14
-15 -37 -16 -41 -4 -50 11 -21 32 20 15 58 4 58 -16z"/>
<path d="M955 194 c-11 -11 -13 -20 -6 -27 13 -13 41 -2 41 17 0 23 -17 28
-35 10z"/>
</g>
</svg>
